<svg width="19" height="21" viewBox="0 0 19 21" fill="none" xmlns="http://www.w3.org/2000/svg">
<path fill-rule="evenodd" clip-rule="evenodd" d="M16.6228 14.5V6.5C16.6228 5.96957 16.4121 5.46086 16.037 5.08579C15.6619 4.71071 15.1532 4.5 14.6228 4.5H6.6228C6.09237 4.5 5.58366 4.71071 5.20859 5.08579C4.83352 5.46086 4.6228 5.96957 4.6228 6.5V14.5C4.6228 15.0304 4.83352 15.5391 5.20859 15.9142C5.58366 16.2893 6.09237 16.5 6.6228 16.5H14.6228C15.1532 16.5 15.6619 16.2893 16.037 15.9142C16.4121 15.5391 16.6228 15.0304 16.6228 14.5Z" stroke="#F4F8FB" stroke-linecap="round" stroke-linejoin="round"/>
<path d="M10.6228 7.5V13.556" stroke="#F4F8FB" stroke-linecap="round" stroke-linejoin="round"/>
<path d="M13.6228 10.5H7.6228" stroke="#F4F8FB" stroke-linecap="round" stroke-linejoin="round"/>
</svg>
