<svg width="250" height="242" viewBox="0 0 250 242" fill="none" xmlns="http://www.w3.org/2000/svg">
<path d="M107.486 170.695C131.415 162.881 146.769 156.962 164.244 156.756C164.244 156.756 189.135 159.963 199.435 156.756C229.551 147.363 232.174 113.154 215.914 87.8992C199.078 61.7447 168.776 69.2086 168.776 69.2086C132.507 75.8691 108.31 68.522 95.6546 62.4039C85.5128 57.515 73.2561 59.3346 65.442 67.4233C63.6819 69.1688 62.3045 71.2618 61.3977 73.5688C50.2671 104.049 63.0868 133.836 67.6599 152.025C69.3491 158.768 83.549 178.51 107.486 170.695Z" stroke="#263238" stroke-linecap="round" stroke-linejoin="round" stroke-dasharray="2 2"/>
<path d="M118.568 44.606C117.6 56.0181 116.584 67.5881 116.838 78.9934C117.435 106.624 120.209 134.166 121.967 161.735C123.018 178.166 126.265 195.532 122.956 211.86C119.859 227.166 107.671 239.8 91.7064 240.933C74.135 242.183 61.4389 225.779 63.3546 209.278C64.7897 196.919 72.2193 185.5 72.6587 173.044C73.2424 156.276 53.6454 158.439 40.908 147.638C25.9185 134.948 11.1212 118.077 6.76781 98.4118C5.51125 92.7607 5.18852 86.7388 7.2828 81.3074C16.7654 56.7802 57.0168 50.621 72.6587 71.4677C88.7744 92.9598 82.4229 124.216 108.797 127.148C135.171 130.08 161.058 118.847 186.457 112.495C211.856 106.144 240.181 121.779 235.786 154.985C231.392 188.191 190.364 187.257 171.317 164.268C152.269 141.279 161.058 94.4224 164.965 75.8348C167.114 65.6449 172.635 56.4987 177.476 47.4075C181.287 40.2389 186.093 32.7544 184.857 24.288C181.211 -0.671739 139.538 -7.7305 126.87 13.8097C126.856 13.8372 120.422 22.6881 118.568 44.606Z" stroke="#263238" stroke-linecap="round" stroke-linejoin="round" stroke-dasharray="2 2"/>
<path d="M124.041 145.022C117.62 145.022 111.461 142.471 106.921 137.93C102.38 133.39 99.8296 127.232 99.8296 120.81V120.81C99.8296 114.389 102.38 108.231 106.921 103.69C111.461 99.1499 117.62 96.5991 124.041 96.5991V96.5991C130.462 96.5991 136.62 99.1499 141.161 103.69C145.701 108.231 148.252 114.389 148.252 120.81C148.252 127.232 145.701 133.39 141.161 137.93C136.62 142.471 130.462 145.022 124.041 145.022V145.022Z" fill="#263238" stroke="#263238" stroke-miterlimit="10"/>
<path d="M133.53 100.966C135.8 102.05 137.867 103.515 139.641 105.299" stroke="white" stroke-width="0.75" stroke-linecap="round" stroke-linejoin="round"/>
<path d="M110.411 103.548C110.912 103.15 111.441 102.772 111.99 102.408C114.919 100.488 118.264 99.2949 121.747 98.9294C125.23 98.5639 128.75 99.0362 132.013 100.307" stroke="white" stroke-width="0.75" stroke-linecap="round" stroke-linejoin="round"/>
<path d="M121.363 142.639C118.191 142.25 115.142 141.173 112.428 139.485C109.715 137.796 107.402 135.535 105.652 132.861V132.861C103.179 129.091 101.926 124.651 102.062 120.144C102.198 115.637 103.718 111.282 106.415 107.668" stroke="white" stroke-width="0.75" stroke-linecap="round" stroke-linejoin="round"/>
<path d="M129.493 142.124C128.062 142.502 126.597 142.732 125.119 142.811" stroke="white" stroke-width="0.75" stroke-linecap="round" stroke-linejoin="round"/>
<path d="M132.293 128.672C132.629 128.672 132.941 128.816 133.229 129.104C133.517 129.392 133.661 129.712 133.661 130.064C133.661 130.528 133.389 130.968 132.845 131.384C132.317 131.816 131.661 132.16 130.877 132.416C130.109 132.672 129.421 132.8 128.813 132.8C127.789 132.8 126.973 132.696 126.365 132.488C125.773 132.296 125.173 132.024 124.565 131.672C124.165 131.432 123.837 131.256 123.581 131.144C123.325 131.048 123.021 131 122.669 131C122.477 131 122.317 131.024 122.189 131.072C122.061 131.12 121.893 131.192 121.685 131.288C121.477 131.4 121.285 131.48 121.109 131.528C120.933 131.592 120.709 131.624 120.437 131.624C120.053 131.624 119.717 131.472 119.429 131.168C119.157 130.88 119.021 130.552 119.021 130.184C119.021 129.56 119.301 129.144 119.861 128.936L122.237 128.048C120.989 127.776 119.885 127.24 118.925 126.44C117.965 125.624 117.221 124.624 116.693 123.44C116.165 122.256 115.901 120.976 115.901 119.6C115.901 118.016 116.245 116.568 116.933 115.256C117.637 113.928 118.605 112.88 119.837 112.112C121.085 111.344 122.485 110.96 124.037 110.96C125.589 110.96 126.981 111.344 128.213 112.112C129.461 112.88 130.437 113.928 131.141 115.256C131.845 116.568 132.197 118.016 132.197 119.6C132.197 120.976 131.925 122.256 131.381 123.44C130.853 124.624 130.101 125.624 129.125 126.44C128.165 127.24 127.061 127.776 125.813 128.048L124.349 128.6C124.717 128.648 125.053 128.736 125.357 128.864C125.677 128.992 126.037 129.168 126.437 129.392C126.933 129.664 127.365 129.864 127.733 129.992C128.101 130.12 128.517 130.184 128.981 130.184C129.381 130.184 129.725 130.12 130.013 129.992C130.301 129.88 130.581 129.712 130.853 129.488C130.949 129.408 131.093 129.288 131.285 129.128C131.477 128.984 131.653 128.872 131.813 128.792C131.973 128.712 132.133 128.672 132.293 128.672ZM119.021 119.6C119.021 120.672 119.229 121.648 119.645 122.528C120.077 123.408 120.669 124.104 121.421 124.616C122.189 125.112 123.061 125.36 124.037 125.36C124.997 125.36 125.861 125.104 126.629 124.592C127.397 124.08 127.997 123.392 128.429 122.528C128.861 121.648 129.077 120.672 129.077 119.6C129.077 118.528 128.861 117.56 128.429 116.696C127.997 115.816 127.397 115.12 126.629 114.608C125.861 114.096 124.997 113.84 124.037 113.84C123.061 113.84 122.189 114.096 121.421 114.608C120.669 115.104 120.077 115.792 119.645 116.672C119.229 117.552 119.021 118.528 119.021 119.6Z" fill="#D65D5D"/>
<path d="M139.641 105.299C140.685 106.35 141.623 107.499 142.443 108.732V108.732C144.029 111.148 145.122 113.852 145.661 116.691C146.2 119.53 146.174 122.447 145.584 125.276C144.994 128.105 143.852 130.789 142.223 133.176C140.594 135.563 138.511 137.605 136.091 139.185C134.503 140.223 132.789 141.054 130.99 141.657" stroke="white" stroke-width="0.75" stroke-linecap="round" stroke-linejoin="round"/>
<path d="M224.36 145.022C217.939 145.022 211.781 142.471 207.24 137.93C202.7 133.39 200.149 127.232 200.149 120.81V120.81C200.149 114.389 202.7 108.231 207.24 103.69C211.781 99.1499 217.939 96.5991 224.36 96.5991V96.5991C230.782 96.5991 236.94 99.1499 241.48 103.69C246.021 108.231 248.572 114.389 248.572 120.81V120.81C248.572 127.232 246.021 133.39 241.48 137.93C236.94 142.471 230.782 145.022 224.36 145.022V145.022Z" fill="#263238" stroke="#263238" stroke-miterlimit="10"/>
<path d="M212.845 139.535C210.702 138.218 208.802 136.541 207.228 134.578" stroke="white" stroke-width="0.75" stroke-linecap="round" stroke-linejoin="round"/>
<path d="M236.109 139.419C235.56 139.762 234.996 140.105 234.413 140.387C231.298 141.985 227.847 142.815 224.346 142.809C220.845 142.803 217.396 141.961 214.287 140.352" stroke="white" stroke-width="0.75" stroke-linecap="round" stroke-linejoin="round"/>
<path d="M229.38 99.3937C232.493 100.116 235.41 101.509 237.928 103.477C240.447 105.445 242.504 107.939 243.957 110.785V110.785C246.015 114.796 246.79 119.343 246.176 123.81C245.562 128.276 243.589 132.445 240.524 135.752" stroke="white" stroke-width="0.75" stroke-linecap="round" stroke-linejoin="round"/>
<path d="M221.222 99.0367C222.686 98.8245 224.168 98.7624 225.644 98.8513" stroke="white" stroke-width="0.75" stroke-linecap="round" stroke-linejoin="round"/>
<path d="M207.228 134.578C206.3 133.416 205.491 132.165 204.811 130.842C203.492 128.272 202.692 125.468 202.457 122.588C202.223 119.709 202.559 116.812 203.445 114.062C204.332 111.313 205.752 108.765 207.624 106.565C209.496 104.365 211.784 102.556 214.356 101.241V101.241C216.045 100.376 217.838 99.732 219.691 99.3251" stroke="white" stroke-width="0.75" stroke-linecap="round" stroke-linejoin="round"/>
<path d="M224.36 109.927C227.91 109.927 228.329 109.927 229.73 110.002C230.572 110.013 231.406 110.169 232.195 110.463C232.766 110.686 233.285 111.025 233.719 111.458C234.153 111.892 234.492 112.411 234.715 112.983C235.006 113.772 235.16 114.606 235.168 115.448C235.23 116.821 235.244 117.267 235.244 120.81C235.244 124.353 235.244 124.772 235.168 126.173C235.16 127.015 235.006 127.849 234.715 128.638C234.495 129.211 234.157 129.732 233.723 130.166C233.289 130.6 232.768 130.938 232.195 131.158C231.406 131.452 230.572 131.608 229.73 131.618C228.357 131.68 227.91 131.694 224.36 131.694C220.81 131.694 220.398 131.694 218.997 131.618C218.155 131.608 217.322 131.452 216.532 131.158C215.958 130.944 215.438 130.607 215.008 130.169C214.582 129.736 214.258 129.213 214.06 128.638C213.769 127.849 213.616 127.015 213.607 126.173C213.539 124.8 213.525 124.353 213.525 120.81C213.525 117.267 213.525 116.848 213.607 115.448C213.616 114.606 213.769 113.772 214.06 112.983C214.272 112.405 214.613 111.884 215.056 111.458C215.484 111.017 216.004 110.677 216.58 110.463C217.37 110.169 218.204 110.013 219.046 110.002C220.419 109.941 220.865 109.927 224.408 109.927H224.36ZM224.408 107.537C220.803 107.537 220.357 107.537 218.915 107.613C217.815 107.636 216.726 107.845 215.695 108.231C214.811 108.566 214.01 109.089 213.346 109.762C212.67 110.426 212.147 111.23 211.815 112.117C211.426 113.148 211.217 114.237 211.197 115.338C211.128 116.752 211.115 117.205 211.115 120.831C211.115 124.456 211.115 124.889 211.197 126.324C211.217 127.427 211.426 128.519 211.815 129.551C212.157 130.432 212.679 131.232 213.347 131.9C214.015 132.567 214.814 133.089 215.695 133.431C216.726 133.817 217.815 134.025 218.915 134.049C220.336 134.111 220.783 134.125 224.408 134.125C228.034 134.125 228.466 134.124 229.901 134.049C231.002 134.025 232.091 133.816 233.122 133.431C234.002 133.089 234.802 132.567 235.47 131.9C236.138 131.232 236.659 130.432 237.001 129.551C237.39 128.519 237.599 127.427 237.619 126.324C237.688 124.91 237.702 124.456 237.702 120.831C237.702 117.205 237.702 116.773 237.619 115.338C237.599 114.237 237.39 113.148 237.001 112.117C236.67 111.23 236.147 110.426 235.47 109.762C234.807 109.089 234.006 108.566 233.122 108.231C232.091 107.846 231.002 107.637 229.901 107.613C228.48 107.551 228.027 107.537 224.408 107.537" fill="#D65D5D"/>
<path d="M224.36 113.992C223.014 114.001 221.7 114.409 220.585 115.164C219.47 115.919 218.604 116.987 218.095 118.234C217.587 119.481 217.458 120.85 217.727 122.17C217.995 123.489 218.649 124.7 219.604 125.648C220.559 126.597 221.774 127.242 223.096 127.501C224.417 127.76 225.786 127.622 227.029 127.105C228.272 126.588 229.334 125.714 230.081 124.593C230.828 123.473 231.227 122.157 231.227 120.81C231.227 119.002 230.508 117.268 229.23 115.989C227.951 114.71 226.217 113.992 224.408 113.992H224.36ZM224.36 125.274C223.484 125.274 222.628 125.014 221.9 124.527C221.171 124.04 220.604 123.349 220.269 122.54C219.933 121.73 219.846 120.84 220.017 119.981C220.187 119.122 220.609 118.332 221.229 117.713C221.848 117.094 222.637 116.672 223.496 116.501C224.355 116.33 225.246 116.418 226.055 116.753C226.864 117.088 227.556 117.656 228.043 118.384C228.529 119.112 228.789 119.969 228.789 120.845C228.79 121.427 228.676 122.003 228.454 122.541C228.232 123.078 227.905 123.567 227.494 123.978C227.083 124.39 226.594 124.716 226.056 124.938C225.519 125.161 224.942 125.274 224.36 125.274Z" fill="#D65D5D"/>
<path d="M233.06 113.724C233.06 114.039 232.967 114.347 232.792 114.609C232.617 114.871 232.368 115.075 232.077 115.196C231.786 115.316 231.465 115.348 231.156 115.287C230.847 115.225 230.564 115.073 230.341 114.851C230.118 114.628 229.966 114.344 229.905 114.035C229.843 113.726 229.875 113.406 229.995 113.115C230.116 112.823 230.32 112.575 230.582 112.4C230.844 112.225 231.152 112.131 231.467 112.131C231.89 112.131 232.295 112.299 232.594 112.598C232.892 112.896 233.06 113.302 233.06 113.724Z" fill="#D65D5D"/>
<path d="M124.041 233.483C117.62 233.483 111.461 230.932 106.921 226.391C102.38 221.851 99.8296 215.693 99.8296 209.271C99.8296 202.85 102.38 196.691 106.92 192.149C111.461 187.607 117.619 185.055 124.041 185.053C130.463 185.055 136.621 187.607 141.161 192.149C145.702 196.691 148.252 202.85 148.252 209.271C148.252 215.693 145.701 221.851 141.161 226.391C136.62 230.932 130.462 233.483 124.041 233.483Z" fill="#263238" stroke="#263238" stroke-miterlimit="10"/>
<path d="M120.049 224.279H125.947V209.523H130.067L130.5 204.579H125.947V201.75C125.947 200.589 126.181 200.129 127.32 200.129H130.506V195H126.428C122.04 195 120.062 196.929 120.062 200.624V204.565H117V209.571H120.062L120.049 224.279Z" fill="#D65D5D"/>
<path d="M112.635 190.457C114.783 189.147 117.141 188.217 119.605 187.711" stroke="white" stroke-width="0.75" stroke-linecap="round" stroke-linejoin="round"/>
<path d="M102.137 211.215C102.082 210.576 102.054 209.924 102.054 209.271C102.052 205.77 102.886 202.318 104.488 199.204C106.089 196.091 108.412 193.405 111.262 191.37" stroke="white" stroke-width="0.75" stroke-linecap="round" stroke-linejoin="round"/>
<path d="M140.823 223.464C138.762 225.907 136.192 227.87 133.293 229.215C130.395 230.56 127.237 231.255 124.041 231.251C119.535 231.252 115.137 229.869 111.442 227.291C107.747 224.712 104.933 221.061 103.38 216.831" stroke="white" stroke-width="0.75" stroke-linecap="round" stroke-linejoin="round"/>
<path d="M144.86 216.385C144.381 217.783 143.762 219.129 143.013 220.402" stroke="white" stroke-width="0.75" stroke-linecap="round" stroke-linejoin="round"/>
<path d="M119.605 187.759C121.065 187.46 122.551 187.31 124.041 187.312V187.312C129.868 187.312 135.457 189.627 139.578 193.748C143.699 197.869 146.014 203.458 146.014 209.285C146.014 211.183 145.77 213.073 145.286 214.909" stroke="white" stroke-width="0.75" stroke-linecap="round" stroke-linejoin="round"/>
<path d="M25.2319 145.022C22.0507 145.024 18.9001 144.4 15.9603 143.185C13.0205 141.969 10.349 140.186 8.0986 137.938C5.84819 135.689 4.06296 133.019 2.84494 130.08C1.62692 127.142 0.999999 123.992 1 120.81C0.999999 117.629 1.62692 114.479 2.84494 111.54C4.06296 108.602 5.84819 105.932 8.0986 103.683C10.349 101.435 13.0205 99.6516 15.9603 98.4361C18.9001 97.2206 22.0507 96.5964 25.2319 96.5991V96.5991C31.6531 96.5991 37.8113 99.1499 42.3518 103.69C46.8923 108.231 49.4431 114.389 49.4431 120.81C49.4431 127.232 46.8923 133.39 42.3518 137.93C37.8113 142.471 31.6531 145.022 25.2319 145.022V145.022Z" fill="#263238" stroke="#263238" stroke-miterlimit="10"/>
<path d="M13.806 102.003C15.953 100.692 18.3111 99.7623 20.7755 99.2564" stroke="white" stroke-width="0.75" stroke-linecap="round" stroke-linejoin="round"/>
<path d="M3.3003 122.76C3.24536 122.115 3.2179 121.47 3.2179 120.81C3.21531 117.309 4.04963 113.857 5.65133 110.743C7.25304 107.63 9.57573 104.944 12.4259 102.909" stroke="white" stroke-width="0.75" stroke-linecap="round" stroke-linejoin="round"/>
<path d="M41.993 135.024C39.9317 137.46 37.3645 139.418 34.47 140.761C31.5754 142.105 28.423 142.802 25.2318 142.804C20.7248 142.809 16.3251 141.429 12.6291 138.849C8.93318 136.27 6.11985 132.616 4.57056 128.384" stroke="white" stroke-width="0.75" stroke-linecap="round" stroke-linejoin="round"/>
<path d="M46.0236 127.924C45.5488 129.326 44.9298 130.674 44.1765 131.948" stroke="white" stroke-width="0.75" stroke-linecap="round" stroke-linejoin="round"/>
<path d="M20.7755 99.2633C22.2351 98.9645 23.7214 98.8149 25.2113 98.8169V98.8169C31.0388 98.8169 36.6277 101.132 40.7484 105.253C44.8691 109.373 47.1841 114.962 47.1841 120.79C47.1854 122.688 46.9407 124.578 46.4562 126.413" stroke="white" stroke-width="0.75" stroke-linecap="round" stroke-linejoin="round"/>
<path d="M12.3091 128.913C14.729 130.471 17.547 131.298 20.4253 131.295C30.2512 131.295 35.7994 122.994 35.4698 115.551C36.5034 114.797 37.396 113.868 38.1065 112.804C37.1411 113.228 36.1185 113.508 35.0715 113.635C36.176 112.975 37.0014 111.935 37.3924 110.71C36.3532 111.323 35.2181 111.757 34.0347 111.994C33.2388 111.144 32.1852 110.581 31.0369 110.391C29.8886 110.2 28.7096 110.394 27.6823 110.941C26.655 111.488 25.8367 112.359 25.354 113.418C24.8713 114.477 24.7512 115.666 25.0121 116.8C22.9079 116.695 20.8494 116.148 18.9707 115.194C17.092 114.241 15.4352 112.902 14.1081 111.266C13.4314 112.432 13.2237 113.812 13.5272 115.125C13.8308 116.439 14.6227 117.587 15.7423 118.338C14.9 118.305 14.0782 118.069 13.3459 117.652C13.3294 118.886 13.7444 120.086 14.5192 121.047C15.294 122.007 16.38 122.667 17.5894 122.911C16.8098 123.121 15.9929 123.151 15.1999 123.001C15.5378 124.052 16.1961 124.972 17.0826 125.63C17.9691 126.289 19.0395 126.654 20.1438 126.674C19.0496 127.545 17.7943 128.191 16.4497 128.575C15.1052 128.959 13.6981 129.074 12.3091 128.913V128.913Z" fill="#D65D5D"/>
<path d="M124.041 50.9437C117.62 50.9437 111.461 48.3929 106.921 43.8524C102.38 39.3119 99.8296 33.1537 99.8296 26.7324V26.7324C99.8296 20.3112 102.38 14.153 106.921 9.61249C111.461 5.072 117.62 2.52118 124.041 2.52118V2.52118C130.462 2.52118 136.62 5.072 141.161 9.61249C145.701 14.153 148.252 20.3112 148.252 26.7324C148.252 33.1537 145.701 39.3119 141.161 43.8524C136.62 48.3929 130.462 50.9437 124.041 50.9437Z" fill="#263238" stroke="#263238" stroke-miterlimit="10"/>
<path fill-rule="evenodd" clip-rule="evenodd" d="M137.994 26.1419C138.024 22.6818 136.68 19.3511 134.255 16.8826C131.83 14.414 128.524 13.0098 125.064 12.9788C121.604 12.9479 118.273 14.2927 115.805 16.7175C113.336 19.1422 111.932 22.4483 111.901 25.9084C111.901 26.0938 111.901 26.2861 111.901 26.4715C111.9 28.8297 112.546 31.143 113.769 33.1595L111.441 40.129L118.664 37.8287C120.643 38.9178 122.871 39.4744 125.13 39.444C127.389 39.4136 129.601 38.7972 131.55 37.6552C133.499 36.5132 135.118 34.8847 136.249 32.9291C137.379 30.9735 137.983 28.7578 138 26.499C138 26.396 138 26.2518 137.994 26.1419ZM124.947 37.3549C122.804 37.3602 120.706 36.7319 118.918 35.549L114.702 36.9223L116.076 32.8779C114.728 31.025 114.006 28.7903 114.016 26.499C114.016 26.1488 114.016 25.8123 114.071 25.4484C114.397 22.7659 115.7 20.2977 117.731 18.5154C119.762 16.7332 122.378 15.762 125.081 15.7875C127.783 15.813 130.38 16.8334 132.378 18.6536C134.375 20.4739 135.631 22.9663 135.906 25.6544C135.934 25.9382 135.947 26.2197 135.947 26.499C135.933 29.3988 134.767 32.1742 132.707 34.215C130.647 36.2559 127.861 37.3951 124.961 37.3824L124.947 37.3549Z" fill="#D65D5D"/>
<path fill-rule="evenodd" clip-rule="evenodd" d="M130.935 29.0876C130.612 28.9297 129.047 28.1607 128.751 28.0577C128.456 27.9547 128.243 27.8997 128.065 28.2156C127.886 28.5315 127.234 29.2456 127.055 29.4516C126.877 29.6576 126.678 29.6919 126.369 29.534C125.426 29.163 124.557 28.6284 123.801 27.9547C123.1 27.3192 122.5 26.5806 122.022 25.7643C121.844 25.4484 122.022 25.2767 122.166 25.1188C122.31 24.9609 122.482 24.748 122.647 24.5626L122.764 24.4116C122.832 24.2948 122.887 24.185 122.963 24.0339C123.009 23.9485 123.033 23.8529 123.033 23.7558C123.033 23.6587 123.009 23.5631 122.963 23.4777C122.88 23.3198 122.276 21.7542 121.974 21.1225C121.672 20.4908 121.438 20.5938 121.287 20.5938C121.136 20.5938 120.889 20.5938 120.676 20.5938C120.513 20.597 120.353 20.6341 120.205 20.7026C120.057 20.7712 119.926 20.8697 119.818 20.992C119.459 21.3313 119.175 21.7416 118.983 22.1967C118.792 22.6519 118.697 23.1419 118.706 23.6356C118.708 24.0033 118.764 24.3686 118.87 24.7205C119.119 25.514 119.505 26.2577 120.01 26.9178C120.168 27.1238 122.221 30.4335 125.503 31.7244C128.786 33.0153 128.751 32.5621 129.342 32.5072C129.787 32.4231 130.209 32.2456 130.581 31.9864C130.953 31.7272 131.265 31.3921 131.498 31.0034C131.709 30.5297 131.774 30.0035 131.683 29.4928C131.47 29.328 131.258 29.2456 130.935 29.0876Z" fill="#D65D5D"/>
<path d="M112.635 7.91823C114.783 6.60768 117.141 5.67845 119.605 5.17163" stroke="white" stroke-width="0.75" stroke-linecap="round" stroke-linejoin="round"/>
<path d="M102.137 28.6757C102.082 28.0371 102.054 27.3848 102.054 26.7324C102.052 23.2308 102.886 19.7793 104.488 16.6655C106.089 13.5516 108.412 10.8657 111.262 8.83148" stroke="white" stroke-width="0.75" stroke-linecap="round" stroke-linejoin="round"/>
<path d="M140.823 40.9461C138.761 43.387 136.191 45.3479 133.292 46.6917C130.393 48.0355 127.236 48.7298 124.041 48.7258V48.7258C119.535 48.7266 115.137 47.3441 111.442 44.7654C107.747 42.1866 104.933 38.5358 103.38 34.3062" stroke="white" stroke-width="0.75" stroke-linecap="round" stroke-linejoin="round"/>
<path d="M144.86 33.8461C144.38 35.2455 143.761 36.5934 143.013 37.8699" stroke="white" stroke-width="0.75" stroke-linecap="round" stroke-linejoin="round"/>
<path d="M119.605 5.18536C121.065 4.88658 122.551 4.73704 124.041 4.73903V4.73903C129.868 4.73903 135.457 7.05402 139.578 11.1747C143.699 15.2954 146.014 20.8843 146.014 26.7118C146.014 28.6099 145.77 30.5001 145.286 32.3355" stroke="white" stroke-width="0.75" stroke-linecap="round" stroke-linejoin="round"/>
<path d="M174.365 191.851C190.266 191.851 203.157 178.961 203.157 163.06C203.157 147.159 190.266 134.269 174.365 134.269C158.464 134.269 145.574 147.159 145.574 163.06C145.574 178.961 158.464 191.851 174.365 191.851Z" fill="#D65D5D" stroke="#263238" stroke-miterlimit="10"/>
<path opacity="0.3" d="M174.365 191.851C190.266 191.851 203.157 178.961 203.157 163.06C203.157 147.159 190.266 134.269 174.365 134.269C158.464 134.269 145.574 147.159 145.574 163.06C145.574 178.961 158.464 191.851 174.365 191.851Z" fill="white" stroke="#263238" stroke-miterlimit="10"/>
<path d="M174.365 134.269C174.365 134.269 159.801 132.689 157.481 139.892C155.16 147.095 164.951 145.818 163.406 149.162C161.861 152.506 155.421 156.859 157.996 161.776C160.57 166.692 165.205 172.076 160.055 170.277C154.906 168.478 153.622 167.956 154.652 173.621C155.681 179.285 161.085 180.83 169.84 180.054C178.595 179.279 177.819 183.405 182.708 183.92C187.597 184.435 192.493 181.599 192.493 174.39C192.493 167.18 186.574 168.732 191.978 165.127C197.382 161.522 196.359 152.252 194.814 149.423C193.269 146.594 190.179 147.878 190.179 144.273C190.179 140.668 182.749 133.788 174.365 134.269Z" fill="#263238" stroke="#263238" stroke-miterlimit="10"/>
<path d="M166.352 137.633C166.352 137.633 160.962 136.912 161.14 140.325C161.319 143.738 170.671 150.391 179.481 150.577C188.291 150.762 189.183 146.258 187.927 145.358" stroke="white" stroke-width="0.75" stroke-linecap="round" stroke-linejoin="round"/>
<path d="M171.928 140.49C171.928 140.49 167.615 141.025 168.151 143.923C168.687 146.821 171.385 148.235 175.526 149.856" stroke="white" stroke-width="0.75" stroke-linecap="round" stroke-linejoin="round"/>
<path d="M193.495 158.102C193.495 158.102 193.138 162.6 187.57 165.477C182.001 168.354 176.981 172.652 181.788 174.822C186.595 176.992 189.341 179.491 187.542 180.034" stroke="white" stroke-width="0.75" stroke-linecap="round" stroke-linejoin="round"/>
<path d="M165.995 171.403C165.995 171.403 163.839 176.436 160.605 175.523C157.371 174.609 156.286 172.089 158.449 172.089C160.612 172.089 160.783 173.167 160.783 173.167" stroke="white" stroke-width="0.75" stroke-linecap="round" stroke-linejoin="round"/>
<path d="M183.161 150.803C183.161 150.803 187.576 150.735 186.856 155.047C186.135 159.359 182.001 159.723 180.923 162.957" stroke="white" stroke-width="0.75" stroke-linecap="round" stroke-linejoin="round"/>
<path d="M174.365 191.879C180.827 191.886 187.102 189.708 192.17 185.699C190.151 184.209 186.553 181.579 184.459 180.206C181.431 178.187 177.393 171.904 172.003 173.023C167.677 173.93 156.1 178.915 151.692 180.851C154.386 184.291 157.827 187.071 161.756 188.982C165.684 190.893 169.997 191.883 174.365 191.879V191.879Z" fill="white" stroke="#263238" stroke-miterlimit="10"/>
<path d="M171.124 172.076C171.124 172.076 163.145 174.39 162.115 181.084C161.085 187.779 168.68 182.952 168.68 182.952C168.68 182.952 172.669 188.809 176.274 187.01C179.879 185.211 180.394 179.024 178.334 174.905C176.274 170.785 171.124 172.076 171.124 172.076Z" fill="white" stroke="#263238" stroke-miterlimit="10"/>
<path d="M170.911 167.159C170.954 169.353 170.655 171.539 170.026 173.641C169.016 176.752 165.727 181.036 168.652 182.959C171.577 184.882 175.327 178.764 176.302 173.627C177.277 168.491 177.984 162.353 177.984 162.353L170.911 167.159Z" fill="white"/>
<g style="mix-blend-mode:multiply" opacity="0.5">
<path d="M170.232 172.955C171.174 173.296 172.154 173.526 173.15 173.641C174.043 173.744 174.4 173.552 174.523 173.325C174.413 174.609 173.995 178.132 172.532 180.727C172.086 181.524 171.722 182.197 171.433 182.787C173.603 181.325 175.629 177.246 176.315 173.648C177.29 168.519 177.97 162.394 177.97 162.394L170.898 167.2C170.932 169.139 170.708 171.074 170.232 172.955V172.955Z" fill="#D65D5D"/>
</g>
<path d="M170.911 167.159C170.954 169.353 170.655 171.539 170.026 173.641C169.016 176.752 165.727 181.036 168.652 182.959C171.577 184.882 175.327 178.764 176.302 173.627C177.277 168.491 177.984 162.353 177.984 162.353L170.911 167.159Z" stroke="#263238" stroke-miterlimit="10"/>
<path d="M166.592 147.246C166.592 147.246 164.12 157.546 164.12 161.384C164.12 165.223 167.65 169.92 172.127 170.311C177.84 170.771 179.941 163.094 181.177 158.72C182.248 154.923 182.976 151.641 183.154 150.831C174.468 154.113 166.592 147.246 166.592 147.246Z" fill="white"/>
<g style="mix-blend-mode:multiply" opacity="0.5">
<path d="M183.161 150.803C182.298 151.133 181.403 151.375 180.49 151.524C180.085 154.14 178.842 160.574 175.993 164.529C173.576 167.887 170.987 169.102 169.518 169.542C170.336 169.95 171.223 170.201 172.134 170.283C177.847 170.743 179.948 163.067 181.184 158.693" fill="#D65D5D"/>
</g>
<path d="M166.592 147.246C166.592 147.246 164.12 157.546 164.12 161.384C164.12 165.223 167.65 169.92 172.127 170.311C177.84 170.771 179.941 163.094 181.177 158.72C182.248 154.923 182.976 151.641 183.154 150.831C174.468 154.113 166.592 147.246 166.592 147.246Z" stroke="#263238" stroke-miterlimit="10"/>
<path d="M171.303 154.539C170.988 155.659 170.494 156.721 169.84 157.683C168.948 158.803 167.039 157.793 167.602 158.466C167.913 158.86 168.302 159.186 168.745 159.422C169.189 159.659 169.676 159.801 170.177 159.84" stroke="#263238" stroke-linecap="round" stroke-linejoin="round"/>
<path d="M166.984 161.968C166.984 161.968 168.666 164.44 172.141 163.204" stroke="#263238" stroke-linecap="round" stroke-linejoin="round"/>
<path d="M169.669 153.742C169.566 154.353 169.209 154.806 168.872 154.745C168.536 154.683 168.343 154.147 168.446 153.536C168.549 152.925 168.906 152.479 169.243 152.534C169.579 152.588 169.772 153.131 169.669 153.742Z" fill="#263238"/>
<path d="M175.327 155.356C175.176 155.96 174.791 156.386 174.461 156.303C174.132 156.221 173.981 155.672 174.125 155.067C174.269 154.463 174.654 154.044 174.99 154.12C175.327 154.195 175.471 154.758 175.327 155.356Z" fill="#263238"/>
<path d="M167.368 150.721C167.368 150.721 168.268 148.592 170.959 149.828" stroke="#263238" stroke-linecap="round" stroke-linejoin="round"/>
<path d="M174.091 151.634C174.091 151.634 176.563 150.851 177.236 153.316" stroke="#263238" stroke-linecap="round" stroke-linejoin="round"/>
<path d="M74.1419 191.851C90.0429 191.851 102.933 178.961 102.933 163.06C102.933 147.159 90.0429 134.269 74.1419 134.269C58.241 134.269 45.3507 147.159 45.3507 163.06C45.3507 178.961 58.241 191.851 74.1419 191.851Z" fill="#D65D5D" stroke="#263238" stroke-miterlimit="10"/>
<path opacity="0.3" d="M74.1419 191.851C90.0429 191.851 102.933 178.961 102.933 163.06C102.933 147.159 90.0429 134.269 74.1419 134.269C58.241 134.269 45.3507 147.159 45.3507 163.06C45.3507 178.961 58.241 191.851 74.1419 191.851Z" fill="white" stroke="#263238" stroke-miterlimit="10"/>
<path d="M56.1311 185.493C61.7773 190.041 68.9329 192.29 76.1658 191.788C83.3987 191.286 90.1754 188.072 95.1397 182.787C91.8987 178.613 85.2588 171.458 77.8704 171.458C69.6718 171.458 59.9351 181.242 56.1311 185.493Z" fill="white" stroke="#263238" stroke-miterlimit="10"/>
<path d="M70.9559 169.329C70.9559 169.329 66.0738 169.885 65.655 173.655C65.2361 177.425 68.1612 183.701 68.4428 184.394C68.7243 185.088 75.0003 178.819 77.3692 178.819C79.7382 178.819 85.8768 182.163 85.8768 182.163C85.8768 182.163 83.9267 174.348 80.4385 171.416C76.9504 168.484 71.9241 168.21 70.9559 169.329Z" fill="white" stroke="#263238" stroke-miterlimit="10"/>
<path opacity="0.5" d="M64.5357 155.486C64.5357 155.486 62.4414 153.392 61.329 155.067C60.2166 156.743 61.1848 158.693 62.7023 159.949C64.2198 161.206 66.6093 161.323 66.6093 160.368C66.6093 159.414 64.5357 155.486 64.5357 155.486Z" fill="#D65D5D" stroke="#263238" stroke-miterlimit="10"/>
<path d="M64.5357 155.486C64.5357 155.486 62.4414 153.392 61.329 155.067C60.2166 156.743 61.1848 158.693 62.7023 159.949C64.2198 161.206 66.6093 161.323 66.6093 160.368C66.6093 159.414 64.5357 155.486 64.5357 155.486Z" stroke="#263238" stroke-miterlimit="10"/>
<path d="M82.5397 150.632C82.5397 150.632 83.5147 148.118 84.9086 150.769C86.3025 153.419 83.652 155.788 83.652 155.788L82.5397 150.632Z" fill="white" stroke="#263238" stroke-miterlimit="10"/>
<path d="M66.63 160.396C66.63 160.396 69.4178 170.441 70.1182 173.93C70.8186 177.418 74.0252 182.444 76.3942 180.796C78.7631 179.148 78.6326 176.051 77.2319 173.401C76.3098 171.569 75.5626 169.654 75.0003 167.681L66.63 160.396Z" fill="white"/>
<g style="mix-blend-mode:multiply" opacity="0.5">
<path d="M77.2319 173.373C76.3098 171.541 75.5626 169.626 75.0003 167.654L66.63 160.396C66.63 160.396 68.9166 168.636 69.8641 172.755C71.0743 173.701 72.4507 174.411 73.9222 174.85C75.1944 175.197 76.5515 175.043 77.7125 174.417C77.5744 174.059 77.4139 173.711 77.2319 173.373V173.373Z" fill="#D65D5D"/>
</g>
<path d="M66.63 160.396C66.63 160.396 69.4178 170.441 70.1182 173.93C70.8186 177.418 74.0252 182.444 76.3942 180.796C78.7631 179.148 78.6326 176.051 77.2319 173.401C76.3098 171.569 75.5626 169.654 75.0003 167.681L66.63 160.396Z" stroke="#263238" stroke-miterlimit="10"/>
<path d="M61.6243 149.931C61.6243 149.931 68.1818 165.724 70.9765 169.329C73.7712 172.934 81.2763 173.236 84.5104 167.956C87.7445 162.675 84.0915 155.541 83.5353 152.328C82.9791 149.114 81.4754 143.82 82.4161 142.845C83.3568 141.87 87.2982 141.17 85.7669 138.656C84.2357 136.143 81.9972 137.4 81.7226 135.587C81.4479 133.774 82.8349 129.304 77.6713 128.611C72.5077 127.917 63.4371 134.049 59.8184 138.794C56.1998 143.538 55.0462 147.837 61.6243 149.931Z" fill="#263238" stroke="#263238" stroke-miterlimit="10"/>
<path d="M63.6842 145.186C63.6842 145.186 59.3858 144.864 61.5419 140.73C63.698 136.596 78.0833 131.028 78.2618 134.083C78.4403 137.139 75.2062 138.038 75.2062 138.038" stroke="white" stroke-width="0.75" stroke-linecap="round" stroke-linejoin="round"/>
<path d="M69.4658 141.272C69.4658 141.272 66.2317 140.552 67.3097 138.217C68.3878 135.882 76.298 134.784 74.8629 136.239C74.012 137.092 73.0431 137.818 71.9858 138.395" stroke="white" stroke-width="0.75" stroke-linecap="round" stroke-linejoin="round"/>
<path d="M79.8823 159.421C79.8823 159.421 77.5134 163.184 73.7437 161.371" stroke="white" stroke-width="0.75" stroke-linecap="round" stroke-linejoin="round"/>
<path d="M83.5148 152.3C82.9929 149.299 81.6128 144.459 82.2376 143.051C81.8188 142.042 80.3768 139.686 76.1196 139.467C70.6744 139.185 64.8173 142.254 63.6981 145.186C62.5788 148.118 65.2362 146.56 66.2112 148.675C67.1862 150.789 64.6731 153.282 65.2362 154.813C65.7992 156.344 68.4428 162.366 68.4428 162.366C68.8617 160.691 75.1445 157.896 75.1445 157.896C76.0532 158.136 76.994 158.231 77.9323 158.178C79.1889 158.041 78.4885 156.921 78.4885 156.921L84.9224 157.306C84.3731 155.28 83.7208 153.515 83.5148 152.3Z" fill="white"/>
<g style="mix-blend-mode:multiply" opacity="0.5">
<path d="M68.6555 146.306C68.3946 143.559 66.5956 143.017 65.4008 142.969C64.659 143.559 64.0702 144.32 63.6842 145.186C62.5718 148.118 65.2223 146.56 66.1973 148.675C67.1724 150.789 64.6592 153.282 65.2223 154.813C65.7853 156.344 68.4289 162.366 68.4289 162.366C68.5663 161.831 69.2941 161.178 70.228 160.547C68.8547 158.59 67.1792 156.207 66.2317 154.827C64.4464 152.183 69.0607 150.563 68.6555 146.306Z" fill="#D65D5D"/>
</g>
<path d="M83.5148 152.3C82.9929 149.299 81.6128 144.459 82.2376 143.051C81.8188 142.042 80.3768 139.686 76.1196 139.467C70.6744 139.185 64.8173 142.254 63.6981 145.186C62.5788 148.118 65.2362 146.56 66.2112 148.675C67.1862 150.789 64.6731 153.282 65.2362 154.813C65.7992 156.344 68.4428 162.366 68.4428 162.366C68.8617 160.691 75.1445 157.896 75.1445 157.896C76.0532 158.136 76.994 158.231 77.9323 158.178C79.1889 158.041 78.4885 156.921 78.4885 156.921L84.9224 157.306C84.3731 155.28 83.7208 153.515 83.5148 152.3Z" stroke="#263238" stroke-miterlimit="10"/>
<path d="M71.6906 151.627C71.8691 152.403 71.6906 153.11 71.3404 153.193C70.9902 153.275 70.5233 152.712 70.3516 151.929C70.18 151.147 70.3516 150.446 70.7018 150.364C71.052 150.281 71.5189 150.844 71.6906 151.627Z" fill="#263238"/>
<path d="M79.999 149.917C80.1775 150.7 79.999 151.401 79.6488 151.483C79.2986 151.565 78.8317 151.002 78.6532 150.22C78.4746 149.437 78.6532 148.736 79.0102 148.654C79.3673 148.572 79.8205 149.135 79.999 149.917Z" fill="#263238"/>
<path d="M68.4427 147.974C68.4427 147.974 68.9989 144.905 72.2125 146.161" stroke="#263238" stroke-linecap="round" stroke-linejoin="round"/>
<path d="M80.8505 144.768C78.4747 143.229 77.637 145.454 77.637 145.454C77.637 145.454 76.1332 147.102 76.7444 150.144" stroke="#263238" stroke-linecap="round" stroke-linejoin="round"/>
<path d="M68.8616 156.207L72.9059 154.539" stroke="#263238" stroke-width="0.5" stroke-linecap="round" stroke-linejoin="round"/>
<path d="M78.6326 153.282L81.9765 153" stroke="#263238" stroke-width="0.5" stroke-linecap="round" stroke-linejoin="round"/>
<path d="M181.098 101.398C196.558 97.678 206.075 82.1297 202.355 66.6701C198.635 51.2104 183.086 41.6936 167.627 45.4137C152.167 49.1338 142.65 64.6821 146.37 80.1417C150.09 95.6014 165.639 105.118 181.098 101.398Z" fill="#D65D5D" stroke="#263238" stroke-miterlimit="10"/>
<path opacity="0.3" d="M181.098 101.398C196.558 97.678 206.075 82.1297 202.355 66.6701C198.635 51.2104 183.086 41.6936 167.627 45.4137C152.167 49.1338 142.65 64.6821 146.37 80.1417C150.09 95.6014 165.639 105.118 181.098 101.398Z" fill="white" stroke="#263238" stroke-miterlimit="10"/>
<path d="M198.955 67.6746C202.833 57.2176 197.152 45.4671 186.265 41.429C175.377 37.3909 163.408 42.5944 159.529 53.0514C155.651 63.5083 161.332 75.2588 172.219 79.2969C183.106 83.335 195.076 78.1315 198.955 67.6746Z" fill="#263238" stroke="#263238" stroke-miterlimit="10"/>
<path d="M198.803 56.3614C199.755 59.7635 199.693 63.3694 198.625 66.7367" stroke="white" stroke-width="0.75" stroke-linecap="round" stroke-linejoin="round"/>
<path d="M197.347 69.4627C197.347 69.4627 196.07 71.1038 195.342 72.017" stroke="white" stroke-width="0.75" stroke-linecap="round" stroke-linejoin="round"/>
<path d="M167.492 47.6204C167.492 47.6204 164.581 51.0536 166.4 55.2696" stroke="white" stroke-width="0.75" stroke-linecap="round" stroke-linejoin="round"/>
<path d="M174.365 102.202C179.671 102.212 184.874 100.747 189.396 97.9724C186.038 94.8756 177.297 87.1645 173.177 86.828C168.865 86.4779 156.279 90.5085 152.248 91.8475C154.948 95.0918 158.33 97.7015 162.152 99.4911C165.975 101.281 170.145 102.206 174.365 102.202Z" fill="white" stroke="#263238" stroke-miterlimit="10"/>
<path d="M178.616 90.4604C178.732 90.1171 178.835 89.7738 178.945 89.4923C176.734 88.0228 174.654 86.9516 173.177 86.8281C171.385 86.8095 169.597 87.0148 167.856 87.4392C167.094 89.4991 166.895 91.5591 166.277 95.0678C165.439 99.8126 166.695 101.206 170.184 99.3937C173.672 97.581 177.222 94.6421 178.616 90.4604Z" fill="white" stroke="#263238" stroke-miterlimit="10"/>
<path d="M170.245 81.6644C170.245 81.6644 171.083 83.2025 170.108 86.828C169.133 90.4535 166.675 96.4411 167.815 97.581C168.954 98.7208 175.828 93.5297 176.102 89.6227C176.377 85.7157 176.384 77.9016 176.384 77.9016L170.245 81.6644Z" fill="white"/>
<g style="mix-blend-mode:multiply" opacity="0.5">
<path d="M170.568 84.0128L174.976 87.446L174.64 92.9392C175.421 91.9855 175.927 90.8363 176.102 89.6159C176.384 85.7088 176.384 77.8947 176.384 77.8947L170.245 81.6576C170.544 82.4045 170.655 83.2132 170.568 84.0128V84.0128Z" fill="#D65D5D"/>
</g>
<path d="M170.245 81.6644C170.245 81.6644 171.083 83.2025 170.108 86.828C169.133 90.4535 166.675 96.4411 167.815 97.581C168.954 98.7208 175.828 93.5297 176.102 89.6227C176.377 85.7157 176.384 77.9016 176.384 77.9016L170.245 81.6644Z" stroke="#263238" stroke-miterlimit="10"/>
<path d="M163.249 64.5051C163.249 64.5051 162.273 61.9919 161.017 63.8184C159.76 65.6449 161.292 67.8628 161.992 67.8628C162.692 67.8628 163.249 64.5051 163.249 64.5051Z" fill="white" stroke="#263238" stroke-miterlimit="10"/>
<path d="M166.476 56.4095C166.476 56.4095 162.431 64.3609 161.456 69.806C160.481 75.2512 164.526 83.4772 168.57 83.4772C172.614 83.4772 178.87 77.2012 178.87 77.2012C178.87 77.2012 184.727 77.3386 185.565 75.3885C186.402 73.4384 185.427 71.9003 183.889 71.9003H180.82C180.82 71.9003 179.982 72.3192 180.401 68.4121C180.82 64.5051 182.076 62.6923 182.076 62.6923C182.076 62.6923 171.488 63.5232 166.476 56.4095Z" fill="white"/>
<g style="mix-blend-mode:multiply" opacity="0.5">
<path d="M177.201 74.6812C176.353 76.8399 174.957 78.7405 173.151 80.1961C171.345 81.6516 169.191 82.612 166.902 82.9828H166.86C167.388 83.2911 167.986 83.4589 168.598 83.4703C172.642 83.4703 178.897 77.1944 178.897 77.1944C178.897 77.1944 184.754 77.3317 185.592 75.3816C186.43 73.4315 185.455 71.8934 183.917 71.8934H180.847C180.847 71.8934 180.01 72.3123 180.429 68.4052C180.847 64.4982 182.104 62.6855 182.104 62.6855C182.104 62.6855 181.417 62.7335 180.284 62.6855H180.236" fill="#D65D5D"/>
</g>
<path d="M166.476 56.4095C166.476 56.4095 162.431 64.3609 161.456 69.806C160.481 75.2512 164.526 83.4772 168.57 83.4772C172.614 83.4772 178.87 77.2012 178.87 77.2012C178.87 77.2012 184.727 77.3386 185.565 75.3885C186.402 73.4384 185.427 71.9003 183.889 71.9003H180.82C180.82 71.9003 179.982 72.3192 180.401 68.4121C180.82 64.5051 182.076 62.6923 182.076 62.6923C182.076 62.6923 171.488 63.5232 166.476 56.4095Z" stroke="#263238" stroke-miterlimit="10"/>
<path d="M167.217 65.3084C167.053 66.0363 166.709 66.5787 166.455 66.5238C166.201 66.4689 166.132 65.8372 166.297 65.0956C166.462 64.354 166.805 63.8253 167.059 63.8802C167.313 63.9351 167.368 64.5737 167.217 65.3084Z" fill="#263238"/>
<path d="M173.775 68.2336C173.61 68.9614 173.267 69.5107 173.013 69.4489C172.758 69.3871 172.69 68.7623 172.855 68.0276C173.019 67.2929 173.363 66.7504 173.617 66.8122C173.871 66.874 173.94 67.5057 173.775 68.2336Z" fill="#263238"/>
<path d="M168.288 67.1555C168.288 67.1555 165.219 69.3871 165.638 69.9433C166.784 70.9285 168.191 71.5584 169.689 71.7561C170.946 71.7561 170.664 70.2248 170.664 70.2248" stroke="#263238" stroke-linecap="round" stroke-linejoin="round"/>
<path d="M166.057 73.5757C167.591 74.4121 169.347 74.7527 171.083 74.5508C171.799 74.4805 172.489 74.2417 173.095 73.8538C173.701 73.4659 174.207 72.94 174.571 72.3192" stroke="#263238" stroke-linecap="round" stroke-linejoin="round"/>
<path d="M166.338 61.9919C166.338 61.9919 167.176 60.1792 168.852 62.2734" stroke="#263238" stroke-linecap="round" stroke-linejoin="round"/>
<path d="M173.452 64.5051C173.452 64.5051 176.247 63.6674 176.247 66.4552" stroke="#263238" stroke-linecap="round" stroke-linejoin="round"/>
<path d="M78.8158 101.823C94.5059 99.2423 105.133 84.4309 102.553 68.7407C99.9721 53.0506 85.1607 42.4232 69.4706 45.0038C53.7804 47.5844 43.153 62.3958 45.7336 78.086C48.3143 93.7761 63.1256 104.403 78.8158 101.823Z" fill="#D65D5D" stroke="#263238" stroke-miterlimit="10"/>
<path opacity="0.3" d="M78.8158 101.823C94.5059 99.2423 105.133 84.4309 102.553 68.7407C99.9721 53.0506 85.1607 42.4232 69.4706 45.0038C53.7804 47.5844 43.153 62.3958 45.7336 78.086C48.3143 93.7761 63.1256 104.403 78.8158 101.823Z" fill="white" stroke="#263238" stroke-miterlimit="10"/>
<path d="M54.3321 88.016C53.8377 89.9867 51.5855 89.712 52.2722 92.1359C56.8729 97.5215 63.2982 101.021 70.3182 101.965C77.3381 102.909 84.4596 101.231 90.3194 97.2514C92.3794 94.8138 93.6154 92.2526 93.6703 90.1927C93.8557 83.9029 87.2089 79.2063 86.8519 76.1781C86.4948 73.15 89.365 66.3041 89.365 66.3041C89.365 66.3041 94.3913 65.5831 96.1903 61.0993C97.9893 56.6155 91.1503 46.5286 85.0391 43.473C78.9279 40.4174 68.6968 43.1159 63.6706 50.4768C58.6443 57.8377 64.7486 64.306 61.5145 67.7186C58.2804 71.1313 49.8414 71.3098 48.9419 78.1351C48.0424 84.9604 54.8677 85.8599 54.3321 88.016Z" fill="#263238" stroke="#263238" stroke-miterlimit="10"/>
<path d="M85.0597 50.3189C85.0597 50.3189 86.8794 54.7752 79.7931 57.4051C72.7069 60.035 67.2412 58.6205 65.4147 63.276C63.5882 67.9315 65.0096 71.1793 65.2156 73.5757C65.4216 75.9721 59.7224 75.5945 56.2891 78.6363C52.8559 81.6782 59.7224 85.3174 61.5557 87.343C63.3891 89.3687 62.9702 92.4036 59.7292 93.4199" stroke="white" stroke-width="0.75" stroke-linecap="round" stroke-linejoin="round"/>
<path d="M63.5951 59.6367C63.5951 59.6367 66.225 53.1547 70.2762 52.1385C74.3274 51.1223 78.7838 54.1641 81.8188 51.3283C84.8538 48.4924 84.2495 46.4736 82.0179 44.8531" stroke="white" stroke-width="0.75" stroke-linecap="round" stroke-linejoin="round"/>
<path d="M88.0947 52.9488C88.0947 52.9488 95.1878 57.6111 92.7571 61.2572C90.3263 64.9033 89.5161 60.447 89.5161 60.447" stroke="white" stroke-width="0.75" stroke-linecap="round" stroke-linejoin="round"/>
<path d="M58.5276 97.5947C63.906 101.071 70.2905 102.653 76.6697 102.091C83.0489 101.529 89.0582 98.8542 93.7458 94.4911C91.626 92.5437 89.3779 90.7406 87.0167 89.094C82.526 86.0384 78.9348 84.9741 76.4217 85.1389C76.4217 85.1389 74.4441 86.0384 70.6744 89.6296C68.2162 91.9711 62.311 95.4524 58.5276 97.5947Z" fill="white" stroke="#263238" stroke-miterlimit="10"/>
<path d="M83.0616 90.0759C83.0637 88.8811 82.8925 87.6922 82.5534 86.5465C80.6519 85.596 78.5469 85.1246 76.4217 85.1732C76.4217 85.1732 74.8492 85.8599 71.8486 88.6065C71.7851 89.1144 71.753 89.6258 71.7524 90.1377C71.7524 94.855 74.2793 98.6727 77.4036 98.6727C80.5278 98.6727 83.0616 94.7932 83.0616 90.0759Z" fill="white" stroke="#263238" stroke-miterlimit="10"/>
<path d="M74.9797 75.979C74.9797 75.979 74.9797 81.0121 74.4441 85.6814C73.9085 90.3506 74.6226 95.3769 78.0353 95.7339C81.4479 96.091 80.9055 88.016 80.5484 84.7818C80.3365 82.7526 80.3365 80.7068 80.5484 78.6775L74.9797 75.979Z" fill="white"/>
<g style="mix-blend-mode:multiply" opacity="0.5">
<path d="M74.3411 86.7662L80.4042 80.8885C80.4042 80.7031 80.4042 80.5246 80.4042 80.3598L79.1682 78.0595L74.959 75.9996C74.959 75.9996 74.959 81.0327 74.4235 85.7019C74.4029 86.0384 74.3685 86.4023 74.3411 86.7662Z" fill="#D65D5D"/>
</g>
<path d="M74.9797 75.979C74.9797 75.979 74.9797 81.0121 74.4441 85.6814C73.9085 90.3506 74.6226 95.3769 78.0353 95.7339C81.4479 96.091 80.9055 88.016 80.5484 84.7818C80.3365 82.7526 80.3365 80.7068 80.5484 78.6775L74.9797 75.979Z" stroke="#263238" stroke-miterlimit="10"/>
<path d="M87.1951 53.5324C87.1951 53.5324 87.5522 55.867 81.4478 58.7441C75.3435 61.6211 72.2879 63.9489 71.7524 66.6406C71.2168 69.3322 71.0314 70.4171 71.0314 70.4171C71.0314 70.4171 69.7748 67.8971 67.4402 69.1537C65.1056 70.4103 67.2617 75.2649 69.4177 75.4434C71.5738 75.6219 72.1094 74.9009 72.1094 74.9009C72.1094 74.9009 79.1132 81.9048 83.24 81.9048C87.3668 81.9048 88.9873 77.9565 89.8868 70.9184C90.7588 64.1617 87.1951 53.5324 87.1951 53.5324Z" fill="white"/>
<g style="mix-blend-mode:multiply" opacity="0.5">
<path d="M73.7162 67.9383C73.9339 65.6764 74.7387 63.5107 76.0508 61.6555C73.4896 63.3309 72.0957 64.9102 71.7524 66.6405C71.2099 69.3391 71.0314 70.4171 71.0314 70.4171C71.0314 70.4171 69.7748 67.8971 67.4402 69.1537C65.1056 70.4102 67.2617 75.2648 69.4177 75.4434C71.5738 75.6219 72.1094 74.9009 72.1094 74.9009C72.1094 74.9009 79.1132 81.9048 83.24 81.9048C82.0149 81.2959 80.863 80.5495 79.8067 79.68C77.3623 77.8947 73.517 72.4015 73.7162 67.9383Z" fill="#D65D5D"/>
</g>
<path d="M87.1951 53.5324C87.1951 53.5324 87.5522 55.867 81.4478 58.7441C75.3435 61.6211 72.2879 63.9489 71.7524 66.6406C71.2168 69.3322 71.0314 70.4171 71.0314 70.4171C71.0314 70.4171 69.7748 67.8971 67.4402 69.1537C65.1056 70.4103 67.2617 75.2649 69.4177 75.4434C71.5738 75.6219 72.1094 74.9009 72.1094 74.9009C72.1094 74.9009 79.1132 81.9048 83.24 81.9048C87.3668 81.9048 88.9873 77.9565 89.8868 70.9184C90.7588 64.1617 87.1951 53.5324 87.1951 53.5324Z" stroke="#263238" stroke-miterlimit="10"/>
<path d="M85.9524 64.4295C85.7485 64.9862 85.664 65.5795 85.7042 66.171C85.7444 66.7624 85.9085 67.3388 86.1858 67.8628C87.1265 69.6275 87.6003 70.2111 87.2501 70.6849C87.1497 70.8478 87.0181 70.9893 86.863 71.1012C86.7078 71.2132 86.5321 71.2935 86.3459 71.3375C86.1596 71.3815 85.9666 71.3884 85.7777 71.3577C85.5888 71.327 85.4078 71.2594 85.2451 71.1587" stroke="#263238" stroke-linecap="round" stroke-linejoin="round"/>
<path d="M85.245 75.3816C85.245 75.3816 81.8118 76.6794 80.6514 74.2006" stroke="#263238" stroke-linecap="round" stroke-linejoin="round"/>
<path d="M81.8324 67.08C81.8324 67.8284 81.6196 68.4533 81.3587 68.4533C81.0977 68.4533 80.8917 67.849 80.8917 67.08C80.8917 66.3109 81.0977 65.7067 81.3587 65.7067C81.6196 65.7067 81.8324 66.3315 81.8324 67.08Z" fill="#263238"/>
<path d="M87.6003 66.9015C87.8619 66.9015 88.074 66.2959 88.074 65.5488C88.074 64.8017 87.8619 64.1961 87.6003 64.1961C87.3386 64.1961 87.1265 64.8017 87.1265 65.5488C87.1265 66.2959 87.3386 66.9015 87.6003 66.9015Z" fill="#263238"/>
<path d="M78.4198 63.1386C78.4198 63.1386 79.1064 61.2503 81.9492 61.6074" stroke="#263238" stroke-linecap="round" stroke-linejoin="round"/>
<path d="M86.0691 61.2503C86.0691 61.2503 86.8931 59.2522 88.6578 60.9002" stroke="#263238" stroke-linecap="round" stroke-linejoin="round"/>
</svg>
