<svg width="18" height="24" viewBox="0 0 18 24" fill="none" xmlns="http://www.w3.org/2000/svg">
<g clip-path="url(#clip0)">
<path d="M14.1228 12.7C14.1228 12.9321 14.0306 13.1546 13.8665 13.3187C13.7024 13.4828 13.4798 13.575 13.2478 13.575C13.0157 13.575 12.7931 13.4828 12.629 13.3187C12.4649 13.1546 12.3728 12.9321 12.3728 12.7C12.3728 12.4679 12.4649 12.2454 12.629 12.0813C12.7931 11.9172 13.0157 11.825 13.2478 11.825C13.4798 11.825 13.7024 11.9172 13.8665 12.0813C14.0306 12.2454 14.1228 12.4679 14.1228 12.7ZM17.4478 12C17.4478 15.85 14.2978 19 10.4478 19H3.44775V12C3.44775 8.15 6.59775 5 10.4478 5C14.2978 5 17.4478 8.15 17.4478 12ZM6.94775 16.2C7.93475 17.061 9.04775 17.6 10.4478 17.6C13.5348 17.6 16.0478 15.087 16.0478 12C16.0478 11.447 15.9638 10.915 15.8168 10.418C15.3128 10.537 14.7878 10.6 14.2418 10.6C12.8418 10.6 11.5468 10.18 10.4478 9.473C10.4478 9.473 9.42575 13.232 7.66875 12.7C7.20675 12.56 6.94775 12.917 6.94775 13.4" fill="#F4F8FB"/>
</g>
<defs>
<clipPath id="clip0">
<rect width="17.3285" height="24" fill="white" transform="translate(0.447754)"/>
</clipPath>
</defs>
</svg>
