<svg width="26" height="32" viewBox="0 0 26 32" fill="none" xmlns="http://www.w3.org/2000/svg">
<path d="M24.412 7.03737C24.792 8.08547 25 9.20669 25 10.3748V15.9997M25 19.8058C25 24.9526 22.49 30.9993 13 30.9993C11.6426 31.0115 10.2889 30.8654 8.97 30.5643L25 19.8058ZM5.448 29.1C2.068 26.9063 1 23.162 1 19.8058V12.2497C1 9.31356 2.31 6.66237 4.41 4.78554L5.448 29.1ZM7.754 2.24686C9.36384 1.42629 11.1676 0.997581 13 1.00001C16.506 1.00001 19.986 2.3556 22 4.74992L7.754 2.24686Z" stroke="black" stroke-linecap="round" stroke-linejoin="round"/>
<path d="M13 27.2494C10.334 25.9988 9 24.1426 9 21.6808V12.2497C9 11.2552 9.42143 10.3014 10.1716 9.59814C10.9217 8.8949 11.9391 8.49982 13 8.49982C14.0609 8.49982 15.0783 8.8949 15.8284 9.59814C16.5786 10.3014 17 11.2552 17 12.2497V19.8058C17 21.0564 17.666 21.6808 19 21.6808C20.334 21.6808 21 21.0564 21 19.8058V11.436C21 10.5809 20.7921 9.73702 20.392 8.96856C18.928 6.15612 16.464 4.74991 13 4.74991C9.536 4.74991 7.072 6.15612 5.608 8.96856C5.2079 9.73702 4.99997 10.5809 5 11.436V21.6245C5 23.4995 5.334 24.7501 6 25.3744" stroke="black" stroke-linecap="round" stroke-linejoin="round"/>
<path d="M13 12.2497V19.8058C13 23.5182 15 25.3744 19 25.3744" stroke="black" stroke-linecap="round" stroke-linejoin="round"/>
</svg>
