<svg width="111" height="332" viewBox="0 0 111 332" fill="none" xmlns="http://www.w3.org/2000/svg">
<path d="M68.8435 104.859L34.8275 93.0763L31.9272 84.9794L24.9798 84.6367L12.4084 82.0208L13.8787 84.656L29.549 96.4636L33.4313 98.4873L68.8814 117.821L68.8435 104.859Z" fill="white" stroke="#263238" stroke-width="1.00396" stroke-miterlimit="10"/>
<path d="M31.9271 84.9794L28.6995 82.9675L22.1417 85.2406L23.1991 86.5588L31.9271 84.9794Z" fill="white" stroke="#263238" stroke-width="1.00396" stroke-linejoin="round"/>
<path d="M68.8435 104.859L34.8275 93.0763L31.9272 84.9794L24.9798 84.6367L12.4084 82.0208L13.8787 84.656L29.549 96.4636L33.4313 98.4873L68.8814 117.821L68.8435 104.859Z" fill="white"/>
<path opacity="0.5" d="M68.8435 104.859L34.8275 93.0763L31.9272 84.9794L24.9798 84.6367L12.4084 82.0208L13.8787 84.656L29.549 96.4636L33.4313 98.4873L68.8814 117.821L68.8435 104.859Z" fill="#D65D5D" stroke="#263238" stroke-width="1.00396" stroke-miterlimit="10"/>
<path d="M68.8435 104.859L34.8275 93.0763L31.9272 84.9794L24.9798 84.6367L12.4084 82.0208L13.8787 84.656L29.549 96.4636L33.4313 98.4873L68.8814 117.821L68.8435 104.859Z" stroke="#263238" stroke-width="1.00396" stroke-miterlimit="10"/>
<path d="M31.9271 84.9794L28.6995 82.9675L22.1417 85.2406L23.1991 86.5588L31.9271 84.9794Z" fill="white"/>
<path opacity="0.5" d="M31.9271 84.9794L28.6995 82.9675L22.1417 85.2406L23.1991 86.5588L31.9271 84.9794Z" fill="#D65D5D" stroke="#263238" stroke-width="1.00396" stroke-linejoin="round"/>
<path d="M31.9271 84.9794L28.6995 82.9675L22.1417 85.2406L23.1991 86.5588L31.9271 84.9794Z" stroke="#263238" stroke-width="1.00396" stroke-linejoin="round"/>
<path d="M77.4056 32.4944C77.4056 32.4944 76.7919 37.1607 78.0577 40.1872C79.3235 43.2137 86.4665 53.5174 86.4665 53.5174L72.5961 64.2344C72.5961 64.2344 67.1277 52.7031 66.0802 50.8342C65.0327 48.9653 63.8765 40.9829 67.5011 35.3416C71.1258 29.7003 76.2239 28.2533 77.4056 32.4944Z" fill="white"/>
<g style="mix-blend-mode:multiply" opacity="0.5">
<path d="M70.1123 47.3933L75.8248 59.8021L72.5855 64.2446L66.8121 53.4874L70.1123 47.3933Z" fill="#D65D5D"/>
</g>
<path d="M77.4056 32.4944C77.4056 32.4944 76.7919 37.1607 78.0577 40.1872C79.3235 43.2137 86.4665 53.5174 86.4665 53.5174L72.5961 64.2344C72.5961 64.2344 67.1277 52.7031 66.0802 50.8342C65.0327 48.9653 63.8765 40.9829 67.5011 35.3416C71.1258 29.7003 76.2239 28.2533 77.4056 32.4944Z" stroke="#263238" stroke-width="1.00396" stroke-miterlimit="10"/>
<path d="M81.7984 24.0086C81.0498 18.7982 75.2854 8.12431 65.8331 8.36029C59.6978 8.52059 56.8079 9.70568 54.1209 11.1646C51.9298 12.4033 49.8816 13.8793 48.0136 15.5662C43.3009 21.0217 41.6528 22.5096 42.4704 26.765C42.3668 28.4546 42.6015 30.1479 43.1607 31.7456C44.5062 35.5427 45.4284 38.0226 46.6223 39.8422C46.2168 41.5915 45.157 46.2082 45.0861 47.2671C45.0151 48.326 48.1975 47.645 49.8049 47.2685C52.6574 53.9717 58.0194 58.6827 59.7036 59.243C62.6379 60.2206 67.3902 55.4518 69.9306 51.7347C72.471 48.0176 70.6764 43.7552 70.717 42.0721C70.7575 40.389 76.3724 36.7894 78.4508 35.6521C80.5291 34.5149 82.5367 29.2084 81.7984 24.0086Z" fill="white"/>
<g style="mix-blend-mode:multiply" opacity="0.5">
<path d="M42.5118 26.7657C42.4082 28.4553 42.6429 30.1486 43.2021 31.7464C44.5476 35.5435 45.4698 38.0234 46.6637 39.8429C46.2582 41.5922 45.1984 46.2089 45.1275 47.2678C45.0565 48.3267 48.2389 47.6458 49.8463 47.2692C52.6988 53.9724 58.0608 58.6834 59.745 59.2437C62.6793 60.2213 67.4316 55.4525 69.972 51.7355C70.6067 50.8075 71.0268 49.7499 71.202 48.6393C71.0757 48.1486 70.9876 47.8456 70.9876 47.8456C70.9876 47.8456 69.4993 53.1717 66.7479 52.426C63.9965 51.6804 59.8668 46.0664 57.5424 44.1123C55.218 42.1581 56.2294 39.6609 55.8128 36.8055C55.3963 33.9501 48.4587 31.3209 48.0203 29.6812C47.582 28.0415 49.3343 21.3169 49.3343 21.3169C49.3343 21.3169 52.0472 17.8315 51.4497 19.276C51.0232 20.5301 50.8528 21.857 50.9488 23.1782C51.0447 24.4994 51.405 25.7878 52.0082 26.9671C52.4297 27.8966 53.1106 28.6847 53.9692 29.2367C54.8277 29.7886 55.8274 30.0809 56.848 30.0784L59.6084 17.5617L54.3366 13.0394L48.0557 15.5253C43.3008 21.0217 41.6838 22.5102 42.5118 26.7657Z" fill="#D65D5D"/>
</g>
<path d="M81.7984 24.0086C81.0498 18.7982 75.2854 8.12431 65.8331 8.36029C59.6978 8.52059 56.8079 9.70568 54.1209 11.1646C51.9298 12.4033 49.8816 13.8793 48.0136 15.5662C43.3009 21.0217 41.6528 22.5096 42.4704 26.765C42.3668 28.4546 42.6015 30.1479 43.1607 31.7456C44.5062 35.5427 45.4284 38.0226 46.6223 39.8422C46.2168 41.5915 45.157 46.2082 45.0861 47.2671C45.0151 48.326 48.1975 47.645 49.8049 47.2685C52.6574 53.9717 58.0194 58.6827 59.7036 59.243C62.6379 60.2206 67.3902 55.4518 69.9306 51.7347C72.471 48.0176 70.6764 43.7552 70.717 42.0721C70.7575 40.389 76.3724 36.7894 78.4508 35.6521C80.5291 34.5149 82.5367 29.2084 81.7984 24.0086Z" stroke="#263238" stroke-miterlimit="10"/>
<path d="M47.9668 36.7273L48.9526 39.7176C48.9526 39.7176 51.1734 40.4954 53.9489 37.5725" stroke="#263238" stroke-miterlimit="10" stroke-linecap="round"/>
<path d="M55.3967 50.7467C55.3967 50.7467 57.8741 50.5417 58.9338 47.0891" stroke="#263238" stroke-miterlimit="10" stroke-linecap="round"/>
<path d="M46.2761 34.2128C46.2761 34.2128 47.0539 31.9921 51.5114 32.072" stroke="#263238" stroke-miterlimit="10" stroke-linecap="round"/>
<path d="M69.6685 4.29221C66.4378 3.7684 63.1759 3.45995 59.9044 3.36888C59.9044 3.36888 50.2175 -2.4486 40.7063 3.39903C31.195 9.24666 35.5261 19.8637 35.479 22.4925C35.4319 25.1213 32.4184 25.0777 34.2384 28.4988C36.0584 31.9198 42.451 30.1634 42.451 30.1634C42.5411 28.887 42.901 27.6443 43.5071 26.5174C44.1132 25.3905 44.9516 24.4051 45.9669 23.6263C49.4013 21.0582 52.1131 20.5351 53.2217 21.3137C53.2217 21.3137 52.3725 26.9424 53.4543 29.2173C53.4543 29.2173 57.1819 31.1654 58.3145 31.1857C59.4471 31.206 57.5483 32.7622 61.274 34.2425C61.953 34.5002 62.6824 34.5969 63.4051 34.5251C64.1278 34.4533 64.824 34.2149 65.439 33.8287C66.0306 31.5526 67.2976 28.1349 69.5276 28.9752C72.8003 30.2084 75.658 38.3668 71.1509 41.0508C76.4949 42.1236 83.159 32.7534 83.6984 24.1153C84.2378 15.4773 75.2203 5.36872 69.6685 4.29221Z" fill="#263238"/>
<path d="M53.4545 17.6073C53.4545 17.6073 56.245 16.171 59.5753 19.4112C62.9057 22.6514 69.4172 27.0192 78.1871 24.8377" stroke="white" stroke-width="0.5" stroke-linecap="round" stroke-linejoin="round"/>
<path d="M53.1157 15.0547C53.1157 15.0547 55.0704 12.1171 58.2499 12.1741C61.4294 12.2311 68.7788 16.8218 74.7118 16.9281" stroke="white" stroke-width="0.5" stroke-linecap="round" stroke-linejoin="round"/>
<path d="M50.8519 20.7412C50.8519 20.7412 47.3261 16.2294 43.8742 19.7742C40.4222 23.3191 42.512 26.7657 42.512 26.7657" stroke="white" stroke-width="0.5" stroke-linecap="round" stroke-linejoin="round"/>
<path d="M36.387 23.4546C38.4866 21.6284 39.8171 19.0751 40.1114 16.308C40.621 11.6503 47.0627 7.73288 51.0153 11.6287" stroke="white" stroke-width="0.5" stroke-linecap="round" stroke-linejoin="round"/>
<path d="M43.2577 6.60455C43.2577 6.60455 49.7374 0.567481 54.896 8.50732" stroke="white" stroke-width="0.5" stroke-linecap="round" stroke-linejoin="round"/>
<path d="M89.6767 309.972C89.6767 309.972 93.4848 316.131 92.9782 320.04L92.482 323.95C92.482 323.95 78.0413 327.63 74.9968 327.576C71.9524 327.521 55.864 325.705 55.864 325.705L55.2174 322.929C55.1723 322.724 55.1991 322.509 55.2933 322.322C55.3875 322.134 55.5434 321.985 55.7347 321.899L70.225 315.454L74.8441 310.579L89.6767 309.972Z" fill="white" stroke="#263238" stroke-width="1.00396" stroke-miterlimit="10"/>
<path d="M77.2338 324.55C81.1249 324.921 88.5656 322.674 92.8841 321.234L92.534 323.951C92.534 323.951 78.0413 327.63 74.9969 327.576C71.9524 327.521 55.864 325.705 55.864 325.705L55.4007 323.722C57.9773 323.778 72.0872 324.062 77.2338 324.55Z" fill="#D65D5D" stroke="#263238" stroke-width="1.00396" stroke-miterlimit="10"/>
<path d="M70.2457 315.455L49.1664 324.182C49.1664 324.182 47.2989 328.628 49.0701 329.554C50.8413 330.479 89.8219 330.284 89.8219 330.284C89.8219 330.284 92.6399 323.256 88.4752 318.432C84.3106 313.607 70.2457 315.455 70.2457 315.455Z" fill="white" stroke="#263238" stroke-width="1.00396" stroke-miterlimit="10"/>
<path d="M89.8221 330.284C89.8221 330.284 50.8415 330.479 49.0703 329.554C48.2157 329.102 48.2071 327.844 48.4259 326.653L90.5597 327.408C90.4044 328.387 90.1575 329.35 89.8221 330.284Z" fill="#D65D5D" stroke="#263238" stroke-width="1.00396" stroke-miterlimit="10"/>
<path d="M63.188 157.122C63.188 157.122 57.2885 181.245 54.9493 196.357C52.6101 211.47 50.8505 241.799 51.2246 245.287C51.5986 248.776 72.3113 307.488 72.3113 307.488L74.3899 312.722L89.677 309.951C89.677 309.951 83.113 287.632 80.7234 275.397C78.3338 263.162 72.9882 243.037 73.0505 239.557C73.1129 236.076 87.8119 169.839 88.8564 165.492C89.901 161.145 94.4059 154.522 94.4059 154.522L65.2502 153.407L63.188 157.122Z" fill="#D65D5D" stroke="#263238" stroke-width="1.00396" stroke-miterlimit="10"/>
<path d="M63.1881 157.122C63.1881 157.122 59.5914 179.187 60.6355 194.588C61.6795 209.99 63.9294 242.781 63.8421 247.655C63.7548 252.528 71.0989 281.773 71.3818 290.924C71.8414 304.143 70.7475 310.662 70.7475 310.662L70.1941 315.443C70.1941 315.443 79.3455 316.917 81.3407 317.524C83.6462 318.162 86.0318 318.464 88.4236 318.42C88.4236 318.42 92.0221 303.798 92.2463 291.288C92.4705 278.778 90.1576 252.98 88.9626 242.523C87.7676 232.066 92.8423 191.902 95.4499 184.434C98.0575 176.966 103.746 161.154 100.255 152.964C96.7635 144.773 63.1881 157.122 63.1881 157.122Z" fill="#D65D5D" stroke="#263238" stroke-width="1.00396" stroke-miterlimit="10"/>
<path d="M104.369 148.963L103.86 158.849C103.86 158.849 97.9161 159.917 89.9113 161.156C83.3032 162.181 66.7873 160.44 61.2277 159.8C60.721 159.746 60.2561 159.494 59.9342 159.099C59.6123 158.704 59.4595 158.198 59.5089 157.691L60.2093 148.764L104.369 148.963Z" fill="#263238"/>
<path d="M82.9863 49.9418C82.9863 49.9418 73.4536 59.8843 69.8186 66.1075C66.1835 72.3306 64.6186 81.9377 63.163 89.4992C61.7075 97.0607 64.9627 114.934 63.8083 123.093L60.1568 148.795C60.1568 148.795 59.4398 150.528 61.7018 152.481C63.9639 154.434 75.1628 155.331 85.2845 156.022C88.9802 156.275 100.068 154.093 101.878 154.012C104.062 153.916 104.185 151.143 104.318 148.962C104.938 138.715 107.277 111.41 108.706 99.5243C111.645 75.2864 98.3603 51.5997 82.9863 49.9418Z" fill="white" stroke="#263238" stroke-width="1.00396" stroke-miterlimit="10"/>
<g style="mix-blend-mode:multiply">
<path d="M107.316 113.313C107.828 107.928 108.331 103.041 108.758 99.5253C108.881 98.4881 108.961 97.4501 109.032 96.412L84.1137 100.123L62.9019 92.4672C62.825 96.8834 62.9957 101.3 63.4131 105.697L84.2451 111.933L107.316 113.313Z" fill="#D65D5D"/>
</g>
<g style="mix-blend-mode:multiply">
<path d="M82.0432 50.9435C80.602 52.4872 77.7394 55.6268 75.0083 58.9663L90.4939 75.2816L95.7264 73.2966L82.0432 50.9435Z" fill="#D65D5D"/>
</g>
<path d="M82.9862 49.9419C82.9862 49.9419 73.4535 59.8843 69.8185 66.1075C68.7398 67.9992 67.8577 69.9965 67.186 72.068L86.3822 50.6783C85.2772 50.3218 84.1397 50.0752 82.9862 49.9419V49.9419Z" fill="#263238"/>
<g style="mix-blend-mode:multiply">
<path d="M63.9637 85.4184L84.2505 92.4964L109.083 90.0934C108.805 83.9131 107.543 77.8168 105.343 72.0346L85.218 79.6876L67.5017 71.2733C65.958 75.8896 64.7751 80.6189 63.9637 85.4184V85.4184Z" fill="#D65D5D"/>
</g>
<g style="mix-blend-mode:multiply">
<path d="M98.1526 138.593C87.7711 140.145 77.1664 139.087 67.2963 135.514L62.3497 133.721L60.5781 146.162L66.2228 147.853C76.9539 151.062 88.2106 152.133 99.3541 151.004L103.946 150.536C104.194 150.035 104.338 149.49 104.37 148.932C104.544 146.16 104.835 142.132 105.198 137.514L98.1526 138.593Z" fill="#D65D5D"/>
</g>
<g style="mix-blend-mode:multiply">
<path d="M101.231 121.665C90.849 123.224 80.2419 122.162 70.375 118.575L64.0756 116.29C64.1923 118.557 64.1203 120.829 63.8603 123.084L63.0152 129.066L69.301 130.946C80.0278 134.158 91.281 135.231 102.422 134.107L105.546 133.788C105.88 129.637 106.26 125.216 106.661 120.847L101.231 121.665Z" fill="#D65D5D"/>
</g>
<path d="M4.53558 75.978L24.3367 92.4913L25.2219 91.4298L5.42081 74.9165L4.53558 75.978Z" fill="#263238"/>
<path d="M92.4589 61.3266C92.4589 61.3266 99.7358 66.4773 99.6896 78.3359C99.6693 83.5325 99.042 88.3752 97.6946 96.8637C96.3472 105.352 88.4317 132.931 82.5943 136.194C76.7568 139.457 67.9037 132.937 67.9037 132.937L25.0494 103.368L14.717 94.7115L9.69753 84.8097L11.3847 81.7218L23.9997 91.7597L17.2249 85.2668L18.6064 83.5766L21.0691 85.3565L28.2937 88.2092L29.6972 98.6282L31.914 100.206L73.1319 116.11C73.1319 116.11 73.0125 93.7709 73.4735 89.5073C73.9345 85.2437 74.6567 74.5197 79.368 66.8191" fill="white"/>
<g style="mix-blend-mode:multiply" opacity="0.5">
<path d="M73.1433 99.2301C73.0051 106.94 73.1007 116.109 73.1007 116.109L31.9232 100.269L29.7064 98.6908L28.3029 88.2717L21.0782 85.419L18.6265 83.6082L17.245 85.2984L23.9996 91.7597L11.3846 81.7218L9.7815 84.7593L14.801 94.6611L25.1324 103.369L27.7401 105.173L84.7133 124.663L73.1433 99.2301Z" fill="#D65D5D"/>
</g>
<path d="M92.4589 61.3266C92.4589 61.3266 99.7358 66.4773 99.6896 78.3359C99.6693 83.5325 99.042 88.3752 97.6946 96.8637C96.3472 105.352 88.4317 132.931 82.5943 136.194C76.7568 139.457 67.9037 132.937 67.9037 132.937L25.0494 103.368L14.717 94.7115L9.69753 84.8097L11.3847 81.7218L23.9997 91.7597L17.2249 85.2668L18.6064 83.5766L21.0691 85.3565L28.2937 88.2092L29.6972 98.6282L31.914 100.206L73.1319 116.11C73.1319 116.11 73.0125 93.7709 73.4735 89.5073C73.9345 85.2437 74.6567 74.5197 79.368 66.8191" stroke="#263238" stroke-width="1.00396" stroke-miterlimit="10"/>
<path d="M73.132 116.11L88.7624 127.823L92.997 120.623C92.997 120.623 95.8737 118.44 96.3195 116.764C96.7653 115.088 96.2843 112.346 96.7405 110.67C97.1966 108.995 99.3446 107.453 99.615 103.384C99.8854 99.3143 99.7489 95.9131 99.7489 95.9131C99.7489 95.9131 103.43 81.8745 103.166 75.7374C102.902 69.6002 97.184 58.6569 92.4502 58.333C87.7164 58.0091 81.5419 58.6157 76.6327 65.7619C71.7234 72.908 72.3218 94.0392 71.55 95.3454C70.7783 96.6516 71.7006 103.185 71.7006 103.185C71.2798 103.487 70.9282 103.876 70.6692 104.325C70.4103 104.773 70.2499 105.272 70.1988 105.788C70.0853 107.48 71.8394 111.679 71.8394 111.679L73.132 116.11Z" fill="white" stroke="#263238" stroke-width="1.00396" stroke-miterlimit="10"/>
<g style="mix-blend-mode:multiply">
<path d="M72.0628 89.9289C72.0629 91.7427 71.8948 93.5525 71.5605 95.3352C70.8743 96.5078 71.5369 101.873 71.6836 102.967C80.5407 105.892 89.9459 106.772 99.1918 105.538C99.4028 104.819 99.5346 104.079 99.5847 103.331C99.8653 99.2724 99.7186 95.8605 99.7186 95.8605C99.7186 95.8605 100.042 94.6087 100.492 92.7043C90.932 93.1401 81.3584 92.2056 72.0628 89.9289V89.9289Z" fill="#D65D5D"/>
</g>
<g style="mix-blend-mode:multiply">
<path d="M75.9679 66.9037C74.4286 69.8591 73.5171 74.3226 72.9578 78.8547C82.3259 82.6236 92.4738 84.0437 102.517 82.9911C102.96 80.5952 103.181 78.1636 103.177 75.7272C103.032 73.7987 102.61 71.901 101.927 70.092C93.1733 70.1395 84.4497 69.068 75.9679 66.9037V66.9037Z" fill="#D65D5D"/>
</g>
<path d="M71.8372 111.794L73.1006 116.109L88.7311 127.822L92.9657 120.623C92.9657 120.623 95.8423 118.439 96.2881 116.764C96.3675 116.472 96.4181 116.174 96.4392 115.872C88.097 115.579 79.8278 114.208 71.8372 111.794V111.794Z" fill="#263238"/>
<path d="M79.6182 317.358C79.6182 317.358 80.1328 308.366 82.0933 295.243C84.0539 282.119 80.2428 263.363 79.6025 260.233C78.9622 257.103 80.1357 250.202 79.4831 247.758C78.8305 245.314 75.6497 234.884 77.8499 222.888C80.0502 210.891 82.2306 179.114 82.2306 179.114C82.2306 179.114 77.3056 174.962 75.9353 169.647C74.565 164.332 75.717 162.689 75.717 162.689" stroke="#263238" stroke-width="1.00396" stroke-miterlimit="10"/>
<path d="M84.6959 163.339L82.583 173.944" stroke="#263238" stroke-width="1.00396" stroke-miterlimit="10"/>
</svg>
